G04*
G04 #@! TF.GenerationSoftware,Altium Limited,Altium Designer,24.9.1 (31)*
G04*
G04 Layer_Physical_Order=4*
G04 Layer_Color=16711680*
%FSLAX44Y44*%
%MOMM*%
G71*
G04*
G04 #@! TF.SameCoordinates,DA4EDB6E-3878-44D2-BF23-6E32A7E0A26F*
G04*
G04*
G04 #@! TF.FilePolarity,Positive*
G04*
G01*
G75*
%ADD11C,0.2000*%
%ADD13C,0.2500*%
%ADD117C,0.1500*%
%ADD159R,1.9500X1.9500*%
%ADD160C,1.9500*%
%ADD161C,4.3000*%
%ADD162R,1.9500X1.9500*%
%ADD163O,2.0000X1.5000*%
G04:AMPARAMS|DCode=164|XSize=1.5mm|YSize=2mm|CornerRadius=0.375mm|HoleSize=0mm|Usage=FLASHONLY|Rotation=90.000|XOffset=0mm|YOffset=0mm|HoleType=Round|Shape=RoundedRectangle|*
%AMROUNDEDRECTD164*
21,1,1.5000,1.2500,0,0,90.0*
21,1,0.7500,2.0000,0,0,90.0*
1,1,0.7500,0.6250,0.3750*
1,1,0.7500,0.6250,-0.3750*
1,1,0.7500,-0.6250,-0.3750*
1,1,0.7500,-0.6250,0.3750*
%
%ADD164ROUNDEDRECTD164*%
%ADD165C,1.6500*%
%ADD166R,1.6500X1.6500*%
%ADD167C,1.4000*%
%ADD168R,1.6500X1.6500*%
%ADD169R,1.2750X1.2750*%
%ADD170C,1.2750*%
%ADD171C,1.0668*%
%ADD172C,2.4511*%
%ADD173C,2.5400*%
%ADD174C,0.4500*%
%ADD175C,0.6000*%
D11*
X243160Y823180D02*
Y843057D01*
X233911Y852307D02*
X243160Y843057D01*
X227811Y852307D02*
X233911D01*
X205019Y795821D02*
Y812940D01*
X227433Y835353D01*
X47082Y832385D02*
X52160Y827307D01*
X185663Y789388D02*
X267088D01*
X237331Y817352D02*
X243160Y823180D01*
X302514Y874501D02*
Y908166D01*
X309688Y915340D01*
X288433Y908975D02*
X300798Y921340D01*
X288433Y874501D02*
Y908975D01*
X161347Y813704D02*
X185663Y789388D01*
X91836Y813704D02*
X161347D01*
X78233Y827307D02*
X91836Y813704D01*
X52160Y827307D02*
X78233D01*
X55784Y842010D02*
X62331Y835462D01*
X110547D01*
X31793Y842010D02*
X55784D01*
X25530Y848273D02*
X31793Y842010D01*
D13*
X11580Y807778D02*
X55530D01*
X41852Y781576D02*
X58530Y798254D01*
X30988Y781576D02*
X41852D01*
X42201Y794004D02*
X48082Y799885D01*
X21180Y732491D02*
X42145Y711525D01*
Y703326D02*
Y711525D01*
X11580Y794004D02*
X42201D01*
X16030Y766618D02*
X30988Y781576D01*
D117*
X146129Y899668D02*
X157813Y887984D01*
X104394Y899668D02*
X146129D01*
X142482Y894897D02*
X162878Y874501D01*
X95556Y894897D02*
X142482D01*
X58530Y949706D02*
X64914Y956090D01*
X84617D02*
X118619Y990092D01*
X64914Y956090D02*
X84617D01*
X55784Y944626D02*
X79318D01*
X52204Y941126D02*
X80828D01*
X33464Y933040D02*
X84041D01*
X10414Y956090D02*
X33464Y933040D01*
X25146Y915162D02*
X45362D01*
X66780Y876192D02*
Y893744D01*
X45362Y915162D02*
X66780Y893744D01*
X116922Y958850D02*
X212090D01*
X242281Y891798D02*
Y928659D01*
X212090Y958850D02*
X242281Y928659D01*
X110547Y947300D02*
X215404D01*
X237411Y891425D02*
Y925293D01*
X215404Y947300D02*
X237411Y925293D01*
X72909Y878372D02*
X76780Y874501D01*
X72909Y878372D02*
Y892840D01*
X86142Y858300D02*
Y918193D01*
X82642Y852307D02*
Y894897D01*
X8855Y848734D02*
Y919340D01*
Y848734D02*
X15579Y842010D01*
X95556Y912340D02*
X139728D01*
X157728Y894340D01*
X104997Y917933D02*
X140879D01*
X118506Y921433D02*
X143233D01*
X140879Y917933D02*
X156972Y901840D01*
X108099Y931840D02*
X118506Y921433D01*
X143233D02*
X149504Y915162D01*
X223489D01*
X233911Y904740D01*
X242107Y990092D02*
X242281Y990266D01*
X118619Y990092D02*
X242107D01*
X119958Y985266D02*
X251606D01*
X79318Y944626D02*
X119958Y985266D01*
X80828Y941126D02*
X112402Y972700D01*
X239674D02*
X242281Y975307D01*
X112402Y972700D02*
X239674D01*
X114778Y968980D02*
X251606D01*
X82338Y936540D02*
X114778Y968980D01*
X114851Y963850D02*
X242281D01*
X229664Y887984D02*
X369934Y747714D01*
X157813Y887984D02*
X229664D01*
X157728Y894340D02*
X217998D01*
X84041Y933040D02*
X114851Y963850D01*
X47082Y832385D02*
Y832506D01*
X16075Y835462D02*
X21426D01*
X3810Y847728D02*
Y924340D01*
Y847728D02*
X16075Y835462D01*
X-1209Y875559D02*
Y912340D01*
X15579Y842010D02*
X24567D01*
X57290Y897530D02*
X63280Y891540D01*
X23625Y897530D02*
X57290D01*
X162878Y874501D02*
X232215D01*
X209042Y880872D02*
X230793D01*
X365506Y721360D02*
Y746159D01*
X272930Y699173D02*
Y833786D01*
X232215Y874501D02*
X272930Y833786D01*
X230793Y880872D02*
X365506Y746159D01*
X369934Y726866D02*
Y747714D01*
X244935Y883901D02*
X251606D01*
X233911Y889975D02*
X271336Y852550D01*
X359532D01*
X233911Y889975D02*
Y904740D01*
X237411Y891425D02*
X244935Y883901D01*
X364876Y852550D02*
X430711D01*
X359822Y852840D02*
X364586D01*
X364876Y852550D01*
X359532D02*
X359822Y852840D01*
X430711Y852550D02*
X453210Y830050D01*
X82323Y851987D02*
X82642Y852307D01*
X71780Y905759D02*
X82642Y894897D01*
X86142Y858300D02*
X88392Y856050D01*
Y844042D02*
Y856050D01*
X76530Y842419D02*
Y866442D01*
X66780Y876192D02*
X76530Y866442D01*
X86142Y918193D02*
X92289Y924340D01*
X25770Y925161D02*
X85413D01*
X92093Y931840D01*
X108099D01*
X230809Y809954D02*
X237331Y816475D01*
X229933Y809954D02*
X230809D01*
X237331Y816475D02*
Y817352D01*
X227433Y835353D02*
X229933D01*
X365506Y721360D02*
X386540Y700326D01*
X369934Y726866D02*
X385303Y711497D01*
X386540Y700326D02*
X454056D01*
X468564Y714834D01*
X63280Y874488D02*
X69030Y868738D01*
Y852307D02*
Y868738D01*
X214212Y939101D02*
X227473Y925840D01*
X104172Y939101D02*
X214212D01*
X18542Y917933D02*
X25770Y925161D01*
X18542Y911319D02*
X23674Y906188D01*
X18542Y911319D02*
Y917933D01*
X24567Y842010D02*
X46157Y820420D01*
X29582Y827307D02*
X29832D01*
X21426Y835462D02*
X29582Y827307D01*
X63280Y874488D02*
Y891540D01*
X242281Y891798D02*
X243160Y890919D01*
X267088D01*
X156972Y901840D02*
X226314D01*
X49196Y936540D02*
X82338D01*
X36030Y949706D02*
X49196Y936540D01*
X43740Y949590D02*
X52204Y941126D01*
X50825Y949585D02*
X55784Y944626D01*
D159*
X222130Y630364D02*
D03*
X342053D02*
D03*
X462444D02*
D03*
D160*
X272930D02*
D03*
X726372Y668464D02*
D03*
X392853Y630364D02*
D03*
X513244D02*
D03*
X727222Y960724D02*
D03*
D161*
X590000Y692635D02*
D03*
Y889508D02*
D03*
X-56886Y612394D02*
D03*
D162*
X726372Y617664D02*
D03*
X727222Y909924D02*
D03*
D163*
X229933Y835353D02*
D03*
X482854Y814324D02*
D03*
D164*
X229933Y809954D02*
D03*
X482854Y788924D02*
D03*
D165*
X653542Y832612D02*
D03*
Y807212D02*
D03*
X678942Y832612D02*
D03*
Y807212D02*
D03*
X653542Y781812D02*
D03*
X59295Y682244D02*
D03*
X33895D02*
D03*
X165855Y682193D02*
D03*
X140455D02*
D03*
D166*
X678942Y781812D02*
D03*
D167*
X760222Y823468D02*
D03*
Y798068D02*
D03*
Y772668D02*
D03*
D168*
X8495Y682244D02*
D03*
X115055Y682193D02*
D03*
D169*
X161347Y835462D02*
D03*
D170*
X135947D02*
D03*
X110547D02*
D03*
D171*
X-52070Y758444D02*
D03*
X-41920Y682244D02*
D03*
X-62220D02*
D03*
D172*
X-77470Y701294D02*
D03*
Y758444D02*
D03*
X-26670D02*
D03*
Y701294D02*
D03*
D173*
X639572Y960000D02*
D03*
X565658D02*
D03*
X491756D02*
D03*
X421640D02*
D03*
X350012D02*
D03*
D174*
X17780Y876516D02*
D03*
X755739Y970333D02*
D03*
X775739Y930333D02*
D03*
X755739Y890333D02*
D03*
X775739Y850333D02*
D03*
X755739Y810333D02*
D03*
X775739Y770333D02*
D03*
X755739Y730333D02*
D03*
X775739Y690333D02*
D03*
X755739Y650333D02*
D03*
X775739Y610334D02*
D03*
X755739Y570334D02*
D03*
X715739Y970333D02*
D03*
X735739Y930333D02*
D03*
X715739Y890333D02*
D03*
X735739Y850333D02*
D03*
X715739Y810333D02*
D03*
X735739Y770333D02*
D03*
X715739Y730333D02*
D03*
X735739Y690333D02*
D03*
X715739Y650333D02*
D03*
Y570334D02*
D03*
X675739Y970333D02*
D03*
X695739Y930333D02*
D03*
X675739Y890333D02*
D03*
X695739Y850333D02*
D03*
X675739Y730333D02*
D03*
X695739Y690333D02*
D03*
X675739Y650333D02*
D03*
X695739Y610334D02*
D03*
X655739Y930333D02*
D03*
X635739Y890333D02*
D03*
X655739Y850333D02*
D03*
Y690333D02*
D03*
X635739Y570334D02*
D03*
X595739Y970333D02*
D03*
X615739Y850333D02*
D03*
Y770333D02*
D03*
X595739Y650333D02*
D03*
X615739Y610334D02*
D03*
X595739Y570334D02*
D03*
X555739Y890333D02*
D03*
X575739Y850333D02*
D03*
X555739Y730333D02*
D03*
Y650333D02*
D03*
X575739Y610334D02*
D03*
X515739Y970333D02*
D03*
Y890333D02*
D03*
X535739Y850333D02*
D03*
Y770333D02*
D03*
X515739Y730333D02*
D03*
Y650333D02*
D03*
X535739Y610334D02*
D03*
X515739Y570334D02*
D03*
X475739Y970333D02*
D03*
Y890333D02*
D03*
X495739Y850333D02*
D03*
Y770333D02*
D03*
Y690333D02*
D03*
X475739Y650333D02*
D03*
X495739Y610334D02*
D03*
X475739Y570334D02*
D03*
X435739Y970333D02*
D03*
X455739Y850333D02*
D03*
X435739Y810333D02*
D03*
Y730333D02*
D03*
Y650333D02*
D03*
X455739Y610334D02*
D03*
X435739Y570334D02*
D03*
X395739Y970333D02*
D03*
Y810333D02*
D03*
X415739Y770333D02*
D03*
X395739Y730333D02*
D03*
X415739Y690333D02*
D03*
X395739Y650333D02*
D03*
X415739Y610334D02*
D03*
X395739Y570334D02*
D03*
X355739Y890333D02*
D03*
Y810333D02*
D03*
X375739Y770333D02*
D03*
X355739Y730333D02*
D03*
X375739Y690333D02*
D03*
X355739Y650333D02*
D03*
X375739Y610334D02*
D03*
X355739Y570334D02*
D03*
X315739Y970333D02*
D03*
Y810333D02*
D03*
Y730333D02*
D03*
Y650333D02*
D03*
X335739Y610334D02*
D03*
X315739Y570334D02*
D03*
X295739Y770333D02*
D03*
Y690333D02*
D03*
X275739Y650333D02*
D03*
X295739Y610334D02*
D03*
X275739Y570334D02*
D03*
X255739Y930333D02*
D03*
Y770333D02*
D03*
X235739Y730333D02*
D03*
X255739Y690333D02*
D03*
X235739Y650333D02*
D03*
X255739Y610334D02*
D03*
X235739Y570334D02*
D03*
X215739Y930333D02*
D03*
Y850333D02*
D03*
Y770333D02*
D03*
X195739Y730333D02*
D03*
Y650333D02*
D03*
X215739Y610334D02*
D03*
X195739Y570334D02*
D03*
X175739Y930333D02*
D03*
Y770333D02*
D03*
Y690333D02*
D03*
X155739Y650333D02*
D03*
X175739Y610334D02*
D03*
X155739Y570334D02*
D03*
X135739Y930333D02*
D03*
X115739Y650333D02*
D03*
X135739Y610334D02*
D03*
X115739Y570334D02*
D03*
X75739Y730333D02*
D03*
X95739Y690333D02*
D03*
X75739Y650333D02*
D03*
X95739Y610334D02*
D03*
X75739Y570334D02*
D03*
X35739Y890333D02*
D03*
Y650333D02*
D03*
X55739Y610334D02*
D03*
X35739Y570334D02*
D03*
X-4261Y650333D02*
D03*
X15739Y610334D02*
D03*
X-4261Y570334D02*
D03*
X-24261Y850333D02*
D03*
X-44261Y810333D02*
D03*
Y650333D02*
D03*
X-24261Y610334D02*
D03*
X-44261Y570334D02*
D03*
X-64261Y850333D02*
D03*
Y770333D02*
D03*
X-84261Y650333D02*
D03*
X599616Y804414D02*
D03*
X-68906Y726584D02*
D03*
X93075Y867227D02*
D03*
X125984Y925961D02*
D03*
X132613Y906188D02*
D03*
X115617D02*
D03*
X104394Y899668D02*
D03*
X556678Y792446D02*
D03*
X559816Y824646D02*
D03*
X525123Y824947D02*
D03*
X27030Y948046D02*
D03*
X27940Y889975D02*
D03*
X65324Y949164D02*
D03*
X58530Y949706D02*
D03*
X565866Y807593D02*
D03*
X137785Y749554D02*
D03*
X243356Y852523D02*
D03*
X592866Y843026D02*
D03*
X10414Y956090D02*
D03*
X251606Y782522D02*
D03*
X205019Y795821D02*
D03*
X375221Y786684D02*
D03*
X123305Y887984D02*
D03*
X95556Y894897D02*
D03*
Y912340D02*
D03*
X104997Y917933D02*
D03*
X209042Y908166D02*
D03*
X185663D02*
D03*
X165855D02*
D03*
X232433Y950500D02*
D03*
X226314Y978662D02*
D03*
X205019D02*
D03*
X179070D02*
D03*
X150876D02*
D03*
X125984D02*
D03*
X242281Y990266D02*
D03*
X251606Y985266D02*
D03*
X242281Y975307D02*
D03*
Y963850D02*
D03*
X91186Y985266D02*
D03*
X101092Y980948D02*
D03*
X86868Y966216D02*
D03*
X171688Y880872D02*
D03*
X217998Y894340D02*
D03*
X205019Y953008D02*
D03*
X179070D02*
D03*
X153826D02*
D03*
X131439D02*
D03*
X116922Y958850D02*
D03*
X115055Y934222D02*
D03*
X144018Y929640D02*
D03*
X163734Y924560D02*
D03*
X150876Y872744D02*
D03*
X205019Y924560D02*
D03*
X184697Y931186D02*
D03*
X91836Y877072D02*
D03*
X26030Y931840D02*
D03*
X55784Y889975D02*
D03*
X2540Y953008D02*
D03*
X-7112Y944626D02*
D03*
Y931840D02*
D03*
Y919340D02*
D03*
Y897530D02*
D03*
Y885131D02*
D03*
X16030Y849925D02*
D03*
X11580Y942086D02*
D03*
X47082Y832506D02*
D03*
X55530Y807778D02*
D03*
X48082Y799885D02*
D03*
X-1190Y875541D02*
D03*
X-1209Y912340D02*
D03*
X8855Y919340D02*
D03*
X3810Y924340D02*
D03*
X500718Y750895D02*
D03*
X227811Y852307D02*
D03*
X358992Y833050D02*
D03*
X62326Y762210D02*
D03*
X-68804Y741426D02*
D03*
X23625Y897530D02*
D03*
X82323Y851987D02*
D03*
X92289Y924340D02*
D03*
X88392Y844042D02*
D03*
X272930Y699173D02*
D03*
X309688Y915340D02*
D03*
X300798Y921340D02*
D03*
X385303Y711497D02*
D03*
X468564Y714834D02*
D03*
X209042Y880872D02*
D03*
X76780Y874501D02*
D03*
X267088Y789388D02*
D03*
X227473Y925840D02*
D03*
X21180Y732491D02*
D03*
X46157Y820420D02*
D03*
X58530Y798254D02*
D03*
X29832Y827307D02*
D03*
X16030Y766618D02*
D03*
X11580Y794004D02*
D03*
Y807778D02*
D03*
X69030Y852307D02*
D03*
X72909Y892840D02*
D03*
X71780Y905759D02*
D03*
X76530Y842419D02*
D03*
X302514Y874501D02*
D03*
X288433D02*
D03*
X251606Y883901D02*
D03*
X267088Y890919D02*
D03*
X226314Y901840D02*
D03*
X23674Y906188D02*
D03*
X25146Y915162D02*
D03*
X110547Y947300D02*
D03*
X104172Y939101D02*
D03*
X251606Y968980D02*
D03*
X25530Y848273D02*
D03*
X50825Y949585D02*
D03*
X43740Y949590D02*
D03*
X36030Y949706D02*
D03*
D175*
X345948Y746506D02*
D03*
X204774Y743035D02*
D03*
X205019Y776721D02*
D03*
X453210Y830050D02*
D03*
X76780Y701294D02*
D03*
X165855D02*
D03*
X42145Y703326D02*
D03*
M02*
