G04*
G04 #@! TF.GenerationSoftware,Altium Limited,Altium Designer,24.9.1 (31)*
G04*
G04 Layer_Color=32896*
%FSLAX44Y44*%
%MOMM*%
G71*
G04*
G04 #@! TF.SameCoordinates,DA4EDB6E-3878-44D2-BF23-6E32A7E0A26F*
G04*
G04*
G04 #@! TF.FilePolarity,Positive*
G04*
G01*
G75*
%ADD11C,0.2000*%
%ADD14C,0.2540*%
%ADD154C,0.4000*%
D11*
X261336Y590331D02*
X263002Y591997D01*
X266334D01*
X268000Y590331D01*
Y583666D01*
X266334Y582000D01*
X263002D01*
X261336Y583666D01*
Y586998D01*
X264668D01*
X258003Y582000D02*
Y591997D01*
X253005D01*
X251339Y590331D01*
Y586998D01*
X253005Y585332D01*
X258003D01*
X248006Y591997D02*
X244674D01*
X246340D01*
Y582000D01*
X248006D01*
X244674D01*
X234677Y591997D02*
X238010D01*
X239676Y590331D01*
Y583666D01*
X238010Y582000D01*
X234677D01*
X233011Y583666D01*
Y590331D01*
X234677Y591997D01*
X213018Y582000D02*
X214684Y583666D01*
X216350Y582000D01*
X218016D01*
X219682Y583666D01*
Y585332D01*
X218016Y586998D01*
X219682Y588665D01*
Y590331D01*
X218016Y591997D01*
X216350D01*
X214684Y590331D01*
Y588665D01*
X216350Y586998D01*
X214684Y585332D01*
Y583666D01*
X213018Y586998D02*
X214684Y585332D01*
X218016Y586998D02*
X216350D01*
X193024Y591997D02*
X199689D01*
Y586998D01*
X196356D01*
X199689D01*
Y582000D01*
X189692D02*
X186360D01*
X188026D01*
Y591997D01*
X189692D01*
X179695Y582000D02*
X176363D01*
X174697Y583666D01*
Y586998D01*
X176363Y588665D01*
X179695D01*
X181361Y586998D01*
Y583666D01*
X179695Y582000D01*
X169698Y588665D02*
X166366D01*
X164700Y586998D01*
Y582000D01*
X169698D01*
X171364Y583666D01*
X169698Y585332D01*
X164700D01*
X159702Y590331D02*
Y588665D01*
X161368D01*
X158035D01*
X159702D01*
Y583666D01*
X158035Y582000D01*
X143040Y588665D02*
X141374D01*
Y586998D01*
X143040D01*
Y588665D01*
Y583666D02*
X141374D01*
Y582000D01*
X143040D01*
Y583666D01*
X124713Y582000D02*
Y588665D01*
X123047D01*
X121381Y586998D01*
Y582000D01*
Y586998D01*
X119714Y588665D01*
X118048Y586998D01*
Y582000D01*
X113050Y588665D02*
X109718D01*
X108052Y586998D01*
Y582000D01*
X113050D01*
X114716Y583666D01*
X113050Y585332D01*
X108052D01*
X104719Y588665D02*
X98055Y582000D01*
X101387Y585332D01*
X98055Y588665D01*
X104719Y582000D01*
X84726Y590331D02*
X83060Y591997D01*
X79727D01*
X78061Y590331D01*
Y588665D01*
X79727Y586998D01*
X81393D01*
X79727D01*
X78061Y585332D01*
Y583666D01*
X79727Y582000D01*
X83060D01*
X84726Y583666D01*
X74729Y591997D02*
Y585332D01*
X71397Y582000D01*
X68064Y585332D01*
Y591997D01*
X64732Y590331D02*
X63066Y591997D01*
X59734D01*
X58068Y590331D01*
Y588665D01*
X59734Y586998D01*
X61400D01*
X59734D01*
X58068Y585332D01*
Y583666D01*
X59734Y582000D01*
X63066D01*
X64732Y583666D01*
X268000Y566000D02*
Y572664D01*
X264668Y575997D01*
X261336Y572664D01*
Y566000D01*
Y570998D01*
X268000D01*
X258003Y574331D02*
X256337Y575997D01*
X253005D01*
X251339Y574331D01*
Y567666D01*
X253005Y566000D01*
X256337D01*
X258003Y567666D01*
Y574331D01*
X231345Y566000D02*
X233011Y567666D01*
X234677Y566000D01*
X236343D01*
X238010Y567666D01*
Y569332D01*
X236343Y570998D01*
X238010Y572664D01*
Y574331D01*
X236343Y575997D01*
X234677D01*
X233011Y574331D01*
Y572664D01*
X234677Y570998D01*
X233011Y569332D01*
Y567666D01*
X231345Y570998D02*
X233011Y569332D01*
X236343Y570998D02*
X234677D01*
X218016Y566000D02*
Y572664D01*
X214684Y575997D01*
X211352Y572664D01*
Y566000D01*
Y570998D01*
X218016D01*
X208019Y566000D02*
X204687D01*
X206353D01*
Y575997D01*
X208019Y574331D01*
X189692Y572664D02*
X188026D01*
Y570998D01*
X189692D01*
Y572664D01*
Y567666D02*
X188026D01*
Y566000D01*
X189692D01*
Y567666D01*
X171364Y566000D02*
Y572664D01*
X169698D01*
X168032Y570998D01*
Y566000D01*
Y570998D01*
X166366Y572664D01*
X164700Y570998D01*
Y566000D01*
X159702Y572664D02*
X156369D01*
X154703Y570998D01*
Y566000D01*
X159702D01*
X161368Y567666D01*
X159702Y569332D01*
X154703D01*
X151371Y572664D02*
X144706Y566000D01*
X148039Y569332D01*
X144706Y572664D01*
X151371Y566000D01*
X131377Y574331D02*
X129711Y575997D01*
X126379D01*
X124713Y574331D01*
Y572664D01*
X126379Y570998D01*
X128045D01*
X126379D01*
X124713Y569332D01*
Y567666D01*
X126379Y566000D01*
X129711D01*
X131377Y567666D01*
X121381Y575997D02*
Y569332D01*
X118048Y566000D01*
X114716Y569332D01*
Y575997D01*
X111384Y574331D02*
X109718Y575997D01*
X106385D01*
X104719Y574331D01*
Y572664D01*
X106385Y570998D01*
X108052D01*
X106385D01*
X104719Y569332D01*
Y567666D01*
X106385Y566000D01*
X109718D01*
X111384Y567666D01*
X478000Y575997D02*
Y566000D01*
X473002D01*
X471335Y567666D01*
Y569332D01*
X473002Y570998D01*
X478000D01*
X473002D01*
X471335Y572664D01*
Y574331D01*
X473002Y575997D01*
X478000D01*
X468003Y566000D02*
Y572664D01*
X464671Y575997D01*
X461339Y572664D01*
Y566000D01*
Y570998D01*
X468003D01*
X458006Y575997D02*
X451342D01*
X454674D01*
Y566000D01*
X438013Y572664D02*
X436347D01*
Y570998D01*
X438013D01*
Y572664D01*
Y567666D02*
X436347D01*
Y566000D01*
X438013D01*
Y567666D01*
X414687Y566000D02*
Y575997D01*
X419686Y570998D01*
X413021D01*
X409689Y566000D02*
Y567666D01*
X408023D01*
Y566000D01*
X409689D01*
X394693Y575997D02*
X401358D01*
Y570998D01*
X398026Y572664D01*
X396360D01*
X394693Y570998D01*
Y567666D01*
X396360Y566000D01*
X399692D01*
X401358Y567666D01*
X391361Y575997D02*
Y569332D01*
X388029Y566000D01*
X384697Y569332D01*
Y575997D01*
X368036Y566000D02*
X371368Y569332D01*
Y572664D01*
X368036Y575997D01*
X363037Y574331D02*
X361371Y575997D01*
X358039D01*
X356373Y574331D01*
Y572664D01*
X358039Y570998D01*
X359705D01*
X358039D01*
X356373Y569332D01*
Y567666D01*
X358039Y566000D01*
X361371D01*
X363037Y567666D01*
X353040Y572664D02*
X346376Y566000D01*
X349708Y569332D01*
X346376Y572664D01*
X353040Y566000D01*
X343044D02*
Y572664D01*
X339711Y575997D01*
X336379Y572664D01*
Y566000D01*
Y570998D01*
X343044D01*
X333047Y566000D02*
Y572664D01*
X329715Y575997D01*
X326382Y572664D01*
Y566000D01*
Y570998D01*
X333047D01*
X323050Y566000D02*
Y572664D01*
X319718Y575997D01*
X316385Y572664D01*
Y566000D01*
Y570998D01*
X323050D01*
X313053Y566000D02*
X309721Y569332D01*
Y572664D01*
X313053Y575997D01*
X478000Y595329D02*
Y585332D01*
Y590331D01*
X471335D01*
Y595329D01*
Y585332D01*
X468003D02*
X464671D01*
X466337D01*
Y591997D01*
X468003D01*
X456340Y582000D02*
X454674D01*
X453008Y583666D01*
Y591997D01*
X458006D01*
X459673Y590331D01*
Y586998D01*
X458006Y585332D01*
X453008D01*
X449676Y595329D02*
Y585332D01*
Y590331D01*
X448010Y591997D01*
X444677D01*
X443011Y590331D01*
Y585332D01*
X429682Y595329D02*
Y585332D01*
X424684D01*
X423018Y586998D01*
Y593663D01*
X424684Y595329D01*
X429682D01*
X413021Y593663D02*
X414687Y595329D01*
X418019D01*
X419686Y593663D01*
Y586998D01*
X418019Y585332D01*
X414687D01*
X413021Y586998D01*
X399692Y591997D02*
X398026D01*
Y590331D01*
X399692D01*
Y591997D01*
Y586998D02*
X398026D01*
Y585332D01*
X399692D01*
Y586998D01*
X381365Y595329D02*
X374700D01*
Y593663D01*
X381365Y586998D01*
Y585332D01*
X371368Y590331D02*
X364703D01*
X361371Y593663D02*
X359705Y595329D01*
X356372D01*
X354706Y593663D01*
Y591997D01*
X356372Y590331D01*
X358039D01*
X356372D01*
X354706Y588665D01*
Y586998D01*
X356372Y585332D01*
X359705D01*
X361371Y586998D01*
X344710Y595329D02*
X348042Y593663D01*
X351374Y590331D01*
Y586998D01*
X349708Y585332D01*
X346376D01*
X344710Y586998D01*
Y588665D01*
X346376Y590331D01*
X351374D01*
X341377Y595329D02*
Y588665D01*
X338045Y585332D01*
X334713Y588665D01*
Y595329D01*
D14*
X607460Y587535D02*
X602462D01*
X604961D01*
Y572540D01*
X607460D01*
X602462D01*
X594964D02*
Y587535D01*
X584967Y572540D01*
Y587535D01*
X569972D02*
X579969D01*
Y580038D01*
X574971D01*
X579969D01*
Y572540D01*
X557476Y587535D02*
X562475D01*
X564974Y585036D01*
Y575039D01*
X562475Y572540D01*
X557476D01*
X554977Y575039D01*
Y585036D01*
X557476Y587535D01*
X539982Y585036D02*
X542481Y587535D01*
X547479D01*
X549979Y585036D01*
Y582537D01*
X547479Y580038D01*
X542481D01*
X539982Y577538D01*
Y575039D01*
X542481Y572540D01*
X547479D01*
X549979Y575039D01*
X519988Y582537D02*
X517489D01*
Y580038D01*
X519988D01*
Y582537D01*
Y575039D02*
X517489D01*
Y572540D01*
X519988D01*
Y575039D01*
D154*
X543624Y873188D02*
Y898180D01*
X531128D01*
X526963Y894015D01*
Y885684D01*
X531128Y881519D01*
X543624D01*
X535293D02*
X526963Y873188D01*
X514467Y889849D02*
X506136D01*
X501971Y885684D01*
Y873188D01*
X514467D01*
X518632Y877353D01*
X514467Y881519D01*
X501971D01*
X493640Y873188D02*
X485309D01*
X489475D01*
Y889849D01*
X493640D01*
X472814Y873188D02*
Y889849D01*
X460318D01*
X456152Y885684D01*
Y873188D01*
X435326D02*
X443656D01*
X447822Y877353D01*
Y885684D01*
X443656Y889849D01*
X435326D01*
X431160Y885684D01*
Y881519D01*
X447822D01*
X418664Y894015D02*
Y889849D01*
X422830D01*
X414499D01*
X418664D01*
Y877353D01*
X414499Y873188D01*
X397838Y894015D02*
Y889849D01*
X402003D01*
X393672D01*
X397838D01*
Y877353D01*
X393672Y873188D01*
X368680D02*
X377011D01*
X381176Y877353D01*
Y885684D01*
X377011Y889849D01*
X368680D01*
X364515Y885684D01*
Y881519D01*
X381176D01*
M02*
