G04*
G04 #@! TF.GenerationSoftware,Altium Limited,Altium Designer,24.9.1 (31)*
G04*
G04 Layer_Color=8388736*
%FSLAX44Y44*%
%MOMM*%
G71*
G04*
G04 #@! TF.SameCoordinates,DA4EDB6E-3878-44D2-BF23-6E32A7E0A26F*
G04*
G04*
G04 #@! TF.FilePolarity,Negative*
G04*
G01*
G75*
%ADD18R,0.3500X0.3000*%
%ADD19R,0.3000X0.3500*%
%ADD20R,0.3500X0.3500*%
%ADD21R,0.3500X0.3500*%
%ADD22R,0.4300X0.4300*%
%ADD23R,0.6000X0.6000*%
%ADD24R,0.6000X0.4318*%
%ADD25R,0.5080X0.4318*%
%ADD58R,0.7112X0.3048*%
%ADD63R,1.0000X1.5000*%
%ADD64R,0.9600X1.5000*%
%ADD65R,0.9000X1.5000*%
%ADD66R,1.9000X1.8000*%
%ADD67R,1.9000X1.4000*%
G04:AMPARAMS|DCode=68|XSize=1.75mm|YSize=1.5mm|CornerRadius=0.425mm|HoleSize=0mm|Usage=FLASHONLY|Rotation=0.000|XOffset=0mm|YOffset=0mm|HoleType=Round|Shape=RoundedRectangle|*
%AMROUNDEDRECTD68*
21,1,1.7500,0.6500,0,0,0.0*
21,1,0.9000,1.5000,0,0,0.0*
1,1,0.8500,0.4500,-0.3250*
1,1,0.8500,-0.4500,-0.3250*
1,1,0.8500,-0.4500,0.3250*
1,1,0.8500,0.4500,0.3250*
%
%ADD68ROUNDEDRECTD68*%
%ADD69R,0.4400X0.8000*%
%ADD70R,2.6000X1.8500*%
%ADD71R,0.7000X0.4500*%
%ADD72R,0.8000X1.2000*%
G04:AMPARAMS|DCode=73|XSize=0.8mm|YSize=0.8mm|CornerRadius=0.25mm|HoleSize=0mm|Usage=FLASHONLY|Rotation=0.000|XOffset=0mm|YOffset=0mm|HoleType=Round|Shape=RoundedRectangle|*
%AMROUNDEDRECTD73*
21,1,0.8000,0.3000,0,0,0.0*
21,1,0.3000,0.8000,0,0,0.0*
1,1,0.5000,0.1500,-0.1500*
1,1,0.5000,-0.1500,-0.1500*
1,1,0.5000,-0.1500,0.1500*
1,1,0.5000,0.1500,0.1500*
%
%ADD73ROUNDEDRECTD73*%
G04:AMPARAMS|DCode=74|XSize=1.05mm|YSize=0.9mm|CornerRadius=0.275mm|HoleSize=0mm|Usage=FLASHONLY|Rotation=90.000|XOffset=0mm|YOffset=0mm|HoleType=Round|Shape=RoundedRectangle|*
%AMROUNDEDRECTD74*
21,1,1.0500,0.3500,0,0,90.0*
21,1,0.5000,0.9000,0,0,90.0*
1,1,0.5500,0.1750,0.2500*
1,1,0.5500,0.1750,-0.2500*
1,1,0.5500,-0.1750,-0.2500*
1,1,0.5500,-0.1750,0.2500*
%
%ADD74ROUNDEDRECTD74*%
G04:AMPARAMS|DCode=75|XSize=1.3mm|YSize=1.45mm|CornerRadius=0.375mm|HoleSize=0mm|Usage=FLASHONLY|Rotation=180.000|XOffset=0mm|YOffset=0mm|HoleType=Round|Shape=RoundedRectangle|*
%AMROUNDEDRECTD75*
21,1,1.3000,0.7000,0,0,180.0*
21,1,0.5500,1.4500,0,0,180.0*
1,1,0.7500,-0.2750,0.3500*
1,1,0.7500,0.2750,0.3500*
1,1,0.7500,0.2750,-0.3500*
1,1,0.7500,-0.2750,-0.3500*
%
%ADD75ROUNDEDRECTD75*%
%ADD76R,0.7000X0.8000*%
%ADD77R,1.4000X1.0000*%
G04:AMPARAMS|DCode=78|XSize=0.8mm|YSize=0.8mm|CornerRadius=0.25mm|HoleSize=0mm|Usage=FLASHONLY|Rotation=90.000|XOffset=0mm|YOffset=0mm|HoleType=Round|Shape=RoundedRectangle|*
%AMROUNDEDRECTD78*
21,1,0.8000,0.3000,0,0,90.0*
21,1,0.3000,0.8000,0,0,90.0*
1,1,0.5000,0.1500,0.1500*
1,1,0.5000,0.1500,-0.1500*
1,1,0.5000,-0.1500,-0.1500*
1,1,0.5000,-0.1500,0.1500*
%
%ADD78ROUNDEDRECTD78*%
G04:AMPARAMS|DCode=79|XSize=1.55mm|YSize=1.2mm|CornerRadius=0.35mm|HoleSize=0mm|Usage=FLASHONLY|Rotation=270.000|XOffset=0mm|YOffset=0mm|HoleType=Round|Shape=RoundedRectangle|*
%AMROUNDEDRECTD79*
21,1,1.5500,0.5000,0,0,270.0*
21,1,0.8500,1.2000,0,0,270.0*
1,1,0.7000,-0.2500,-0.4250*
1,1,0.7000,-0.2500,0.4250*
1,1,0.7000,0.2500,0.4250*
1,1,0.7000,0.2500,-0.4250*
%
%ADD79ROUNDEDRECTD79*%
G04:AMPARAMS|DCode=80|XSize=0.65mm|YSize=1.05mm|CornerRadius=0.2125mm|HoleSize=0mm|Usage=FLASHONLY|Rotation=270.000|XOffset=0mm|YOffset=0mm|HoleType=Round|Shape=RoundedRectangle|*
%AMROUNDEDRECTD80*
21,1,0.6500,0.6250,0,0,270.0*
21,1,0.2250,1.0500,0,0,270.0*
1,1,0.4250,-0.3125,-0.1125*
1,1,0.4250,-0.3125,0.1125*
1,1,0.4250,0.3125,0.1125*
1,1,0.4250,0.3125,-0.1125*
%
%ADD80ROUNDEDRECTD80*%
G04:AMPARAMS|DCode=81|XSize=1.35mm|YSize=1.5mm|CornerRadius=0.3875mm|HoleSize=0mm|Usage=FLASHONLY|Rotation=0.000|XOffset=0mm|YOffset=0mm|HoleType=Round|Shape=RoundedRectangle|*
%AMROUNDEDRECTD81*
21,1,1.3500,0.7250,0,0,0.0*
21,1,0.5750,1.5000,0,0,0.0*
1,1,0.7750,0.2875,-0.3625*
1,1,0.7750,-0.2875,-0.3625*
1,1,0.7750,-0.2875,0.3625*
1,1,0.7750,0.2875,0.3625*
%
%ADD81ROUNDEDRECTD81*%
G04:AMPARAMS|DCode=82|XSize=1.4mm|YSize=1.1mm|CornerRadius=0.325mm|HoleSize=0mm|Usage=FLASHONLY|Rotation=270.000|XOffset=0mm|YOffset=0mm|HoleType=Round|Shape=RoundedRectangle|*
%AMROUNDEDRECTD82*
21,1,1.4000,0.4500,0,0,270.0*
21,1,0.7500,1.1000,0,0,270.0*
1,1,0.6500,-0.2250,-0.3750*
1,1,0.6500,-0.2250,0.3750*
1,1,0.6500,0.2250,0.3750*
1,1,0.6500,0.2250,-0.3750*
%
%ADD82ROUNDEDRECTD82*%
G04:AMPARAMS|DCode=83|XSize=1.4mm|YSize=1.1mm|CornerRadius=0.325mm|HoleSize=0mm|Usage=FLASHONLY|Rotation=0.000|XOffset=0mm|YOffset=0mm|HoleType=Round|Shape=RoundedRectangle|*
%AMROUNDEDRECTD83*
21,1,1.4000,0.4500,0,0,0.0*
21,1,0.7500,1.1000,0,0,0.0*
1,1,0.6500,0.3750,-0.2250*
1,1,0.6500,-0.3750,-0.2250*
1,1,0.6500,-0.3750,0.2250*
1,1,0.6500,0.3750,0.2250*
%
%ADD83ROUNDEDRECTD83*%
G04:AMPARAMS|DCode=84|XSize=2mm|YSize=1.55mm|CornerRadius=0.4375mm|HoleSize=0mm|Usage=FLASHONLY|Rotation=0.000|XOffset=0mm|YOffset=0mm|HoleType=Round|Shape=RoundedRectangle|*
%AMROUNDEDRECTD84*
21,1,2.0000,0.6750,0,0,0.0*
21,1,1.1250,1.5500,0,0,0.0*
1,1,0.8750,0.5625,-0.3375*
1,1,0.8750,-0.5625,-0.3375*
1,1,0.8750,-0.5625,0.3375*
1,1,0.8750,0.5625,0.3375*
%
%ADD84ROUNDEDRECTD84*%
G04:AMPARAMS|DCode=85|XSize=1.05mm|YSize=0.9mm|CornerRadius=0.275mm|HoleSize=0mm|Usage=FLASHONLY|Rotation=0.000|XOffset=0mm|YOffset=0mm|HoleType=Round|Shape=RoundedRectangle|*
%AMROUNDEDRECTD85*
21,1,1.0500,0.3500,0,0,0.0*
21,1,0.5000,0.9000,0,0,0.0*
1,1,0.5500,0.2500,-0.1750*
1,1,0.5500,-0.2500,-0.1750*
1,1,0.5500,-0.2500,0.1750*
1,1,0.5500,0.2500,0.1750*
%
%ADD85ROUNDEDRECTD85*%
%ADD86R,0.9000X1.2000*%
G04:AMPARAMS|DCode=87|XSize=1.9mm|YSize=1.3mm|CornerRadius=0.375mm|HoleSize=0mm|Usage=FLASHONLY|Rotation=180.000|XOffset=0mm|YOffset=0mm|HoleType=Round|Shape=RoundedRectangle|*
%AMROUNDEDRECTD87*
21,1,1.9000,0.5500,0,0,180.0*
21,1,1.1500,1.3000,0,0,180.0*
1,1,0.7500,-0.5750,0.2750*
1,1,0.7500,0.5750,0.2750*
1,1,0.7500,0.5750,-0.2750*
1,1,0.7500,-0.5750,-0.2750*
%
%ADD87ROUNDEDRECTD87*%
G04:AMPARAMS|DCode=88|XSize=0.75mm|YSize=0.75mm|CornerRadius=0.2375mm|HoleSize=0mm|Usage=FLASHONLY|Rotation=270.000|XOffset=0mm|YOffset=0mm|HoleType=Round|Shape=RoundedRectangle|*
%AMROUNDEDRECTD88*
21,1,0.7500,0.2750,0,0,270.0*
21,1,0.2750,0.7500,0,0,270.0*
1,1,0.4750,-0.1375,-0.1375*
1,1,0.4750,-0.1375,0.1375*
1,1,0.4750,0.1375,0.1375*
1,1,0.4750,0.1375,-0.1375*
%
%ADD88ROUNDEDRECTD88*%
G04:AMPARAMS|DCode=89|XSize=1.9mm|YSize=2.6mm|CornerRadius=0.525mm|HoleSize=0mm|Usage=FLASHONLY|Rotation=90.000|XOffset=0mm|YOffset=0mm|HoleType=Round|Shape=RoundedRectangle|*
%AMROUNDEDRECTD89*
21,1,1.9000,1.5500,0,0,90.0*
21,1,0.8500,2.6000,0,0,90.0*
1,1,1.0500,0.7750,0.4250*
1,1,1.0500,0.7750,-0.4250*
1,1,1.0500,-0.7750,-0.4250*
1,1,1.0500,-0.7750,0.4250*
%
%ADD89ROUNDEDRECTD89*%
G04:AMPARAMS|DCode=90|XSize=1.9mm|YSize=2.6mm|CornerRadius=0.185mm|HoleSize=0mm|Usage=FLASHONLY|Rotation=90.000|XOffset=0mm|YOffset=0mm|HoleType=Round|Shape=RoundedRectangle|*
%AMROUNDEDRECTD90*
21,1,1.9000,2.2300,0,0,90.0*
21,1,1.5300,2.6000,0,0,90.0*
1,1,0.3700,1.1150,0.7650*
1,1,0.3700,1.1150,-0.7650*
1,1,0.3700,-1.1150,-0.7650*
1,1,0.3700,-1.1150,0.7650*
%
%ADD90ROUNDEDRECTD90*%
%ADD91R,1.3400X3.2500*%
G04:AMPARAMS|DCode=92|XSize=1.55mm|YSize=1.2mm|CornerRadius=0.35mm|HoleSize=0mm|Usage=FLASHONLY|Rotation=180.000|XOffset=0mm|YOffset=0mm|HoleType=Round|Shape=RoundedRectangle|*
%AMROUNDEDRECTD92*
21,1,1.5500,0.5000,0,0,180.0*
21,1,0.8500,1.2000,0,0,180.0*
1,1,0.7000,-0.4250,0.2500*
1,1,0.7000,0.4250,0.2500*
1,1,0.7000,0.4250,-0.2500*
1,1,0.7000,-0.4250,-0.2500*
%
%ADD92ROUNDEDRECTD92*%
G04:AMPARAMS|DCode=93|XSize=0.95mm|YSize=0.95mm|CornerRadius=0.2875mm|HoleSize=0mm|Usage=FLASHONLY|Rotation=270.000|XOffset=0mm|YOffset=0mm|HoleType=Round|Shape=RoundedRectangle|*
%AMROUNDEDRECTD93*
21,1,0.9500,0.3750,0,0,270.0*
21,1,0.3750,0.9500,0,0,270.0*
1,1,0.5750,-0.1875,-0.1875*
1,1,0.5750,-0.1875,0.1875*
1,1,0.5750,0.1875,0.1875*
1,1,0.5750,0.1875,-0.1875*
%
%ADD93ROUNDEDRECTD93*%
%ADD94R,1.2000X0.8000*%
%ADD95R,0.7500X0.5000*%
G04:AMPARAMS|DCode=96|XSize=2mm|YSize=1.55mm|CornerRadius=0.4375mm|HoleSize=0mm|Usage=FLASHONLY|Rotation=270.000|XOffset=0mm|YOffset=0mm|HoleType=Round|Shape=RoundedRectangle|*
%AMROUNDEDRECTD96*
21,1,2.0000,0.6750,0,0,270.0*
21,1,1.1250,1.5500,0,0,270.0*
1,1,0.8750,-0.3375,-0.5625*
1,1,0.8750,-0.3375,0.5625*
1,1,0.8750,0.3375,0.5625*
1,1,0.8750,0.3375,-0.5625*
%
%ADD96ROUNDEDRECTD96*%
%ADD97R,0.8000X0.7000*%
%ADD98C,1.0636*%
%ADD99C,1.1000*%
%ADD100R,2.1500X2.1500*%
%ADD101C,2.1500*%
%ADD102C,4.5000*%
%ADD103R,2.1500X2.1500*%
%ADD104O,2.2000X1.7000*%
G04:AMPARAMS|DCode=105|XSize=1.7mm|YSize=2.2mm|CornerRadius=0.475mm|HoleSize=0mm|Usage=FLASHONLY|Rotation=90.000|XOffset=0mm|YOffset=0mm|HoleType=Round|Shape=RoundedRectangle|*
%AMROUNDEDRECTD105*
21,1,1.7000,1.2500,0,0,90.0*
21,1,0.7500,2.2000,0,0,90.0*
1,1,0.9500,0.6250,0.3750*
1,1,0.9500,0.6250,-0.3750*
1,1,0.9500,-0.6250,-0.3750*
1,1,0.9500,-0.6250,0.3750*
%
%ADD105ROUNDEDRECTD105*%
%ADD106C,1.8500*%
%ADD107R,1.8500X1.8500*%
%ADD108C,1.6000*%
%ADD109R,1.8500X1.8500*%
%ADD110R,1.4750X1.4750*%
%ADD111C,1.4750*%
%ADD112C,1.2668*%
%ADD113C,2.6511*%
%ADD114C,2.7400*%
%ADD115C,0.6500*%
%ADD116C,0.8000*%
D18*
X17780Y951340D02*
D03*
Y946840D02*
D03*
Y942340D02*
D03*
Y937840D02*
D03*
Y933340D02*
D03*
Y928840D02*
D03*
Y924340D02*
D03*
Y919840D02*
D03*
Y915340D02*
D03*
Y910840D02*
D03*
Y906340D02*
D03*
Y901840D02*
D03*
Y897340D02*
D03*
Y892840D02*
D03*
Y888340D02*
D03*
X81280D02*
D03*
Y892840D02*
D03*
Y897340D02*
D03*
Y901840D02*
D03*
Y906340D02*
D03*
Y910840D02*
D03*
Y915340D02*
D03*
Y919840D02*
D03*
Y924340D02*
D03*
Y928840D02*
D03*
Y933340D02*
D03*
Y937840D02*
D03*
Y942340D02*
D03*
Y946840D02*
D03*
Y951340D02*
D03*
D19*
X22530Y883590D02*
D03*
X27030D02*
D03*
X31530D02*
D03*
X36030D02*
D03*
X40530D02*
D03*
X45030D02*
D03*
X49530D02*
D03*
X54030D02*
D03*
X58530D02*
D03*
X63030D02*
D03*
X67530D02*
D03*
X72030D02*
D03*
X76530D02*
D03*
Y956090D02*
D03*
X72030D02*
D03*
X67530D02*
D03*
X63030D02*
D03*
X58530D02*
D03*
X54030D02*
D03*
X49530D02*
D03*
X45030D02*
D03*
X40530D02*
D03*
X36030D02*
D03*
X31530D02*
D03*
X27030D02*
D03*
X22530D02*
D03*
D20*
X81280D02*
D03*
X17780D02*
D03*
D21*
X81280Y883590D02*
D03*
X17780D02*
D03*
D22*
X80030Y985690D02*
D03*
X19030D02*
D03*
D23*
X45030Y942340D02*
D03*
X36030D02*
D03*
X54030D02*
D03*
X45030Y933340D02*
D03*
X36030D02*
D03*
X54030D02*
D03*
X45030Y924340D02*
D03*
X36030D02*
D03*
X54030D02*
D03*
X63030D02*
D03*
X45030Y915340D02*
D03*
X36030D02*
D03*
X54030D02*
D03*
X63030D02*
D03*
X45030Y906340D02*
D03*
X36030D02*
D03*
X54030D02*
D03*
X63030D02*
D03*
X45030Y897340D02*
D03*
X36030D02*
D03*
X54030D02*
D03*
X63030D02*
D03*
D24*
Y942340D02*
D03*
D25*
Y933340D02*
D03*
D58*
X290244Y848043D02*
D03*
Y840042D02*
D03*
X275258D02*
D03*
Y848043D02*
D03*
D63*
X585429Y620614D02*
D03*
X640429D02*
D03*
D64*
X597729D02*
D03*
X628129D02*
D03*
D65*
X617929D02*
D03*
X607929D02*
D03*
D66*
X668129Y581714D02*
D03*
X557729D02*
D03*
D67*
X668129Y617714D02*
D03*
X557729D02*
D03*
D68*
X-87032Y862470D02*
D03*
X-7532D02*
D03*
X-87032Y817470D02*
D03*
X-7532D02*
D03*
X546100Y861954D02*
D03*
X466600D02*
D03*
X546100Y906954D02*
D03*
X466600D02*
D03*
D69*
X572866Y780011D02*
D03*
X577866D02*
D03*
X582866D02*
D03*
X587866D02*
D03*
X592866D02*
D03*
Y808011D02*
D03*
X587866D02*
D03*
X582866D02*
D03*
X577866D02*
D03*
X572866D02*
D03*
D70*
X582866Y794011D02*
D03*
D71*
X597366Y791511D02*
D03*
Y796511D02*
D03*
X568366D02*
D03*
Y791511D02*
D03*
D72*
X54582Y733618D02*
D03*
X35582D02*
D03*
Y761618D02*
D03*
X45082D02*
D03*
X54582D02*
D03*
X132805Y760422D02*
D03*
X123305D02*
D03*
X113805D02*
D03*
Y732422D02*
D03*
X132805D02*
D03*
D73*
X3810Y932686D02*
D03*
Y942086D02*
D03*
X12334Y869442D02*
D03*
Y860042D02*
D03*
X10414Y818063D02*
D03*
Y827462D02*
D03*
X577866Y819946D02*
D03*
Y829346D02*
D03*
X305308Y849632D02*
D03*
Y840232D02*
D03*
X304800Y804160D02*
D03*
Y813560D02*
D03*
X21082Y869442D02*
D03*
Y860042D02*
D03*
D74*
X282680Y730614D02*
D03*
X266180D02*
D03*
X403474Y730297D02*
D03*
X386974D02*
D03*
X-6754Y729991D02*
D03*
X9746D02*
D03*
X-82418Y793750D02*
D03*
X-65918D02*
D03*
X-20696Y794004D02*
D03*
X-4196D02*
D03*
X-3170Y778256D02*
D03*
X13330D02*
D03*
D75*
X268356Y925840D02*
D03*
X243356D02*
D03*
X438251Y890704D02*
D03*
X413251D02*
D03*
D76*
X204866Y810106D02*
D03*
X197866D02*
D03*
Y835506D02*
D03*
X204866D02*
D03*
D77*
X403553Y685434D02*
D03*
Y710834D02*
D03*
X342053D02*
D03*
Y685434D02*
D03*
X282973Y685942D02*
D03*
Y711342D02*
D03*
X221473D02*
D03*
Y685942D02*
D03*
D78*
X112238Y889840D02*
D03*
X102837D02*
D03*
X445516Y781424D02*
D03*
X436116D02*
D03*
D79*
X268356Y945340D02*
D03*
X250356D02*
D03*
X438251Y867222D02*
D03*
X420251D02*
D03*
D80*
X473694Y689800D02*
D03*
X451194D02*
D03*
X628129Y640114D02*
D03*
X650629D02*
D03*
D81*
X687192Y748035D02*
D03*
Y717035D02*
D03*
D82*
X415898Y809211D02*
D03*
X452898D02*
D03*
D83*
X622808Y753448D02*
D03*
Y790448D02*
D03*
X77151Y753026D02*
D03*
Y716026D02*
D03*
X160021Y767297D02*
D03*
Y730297D02*
D03*
D84*
X622808Y835474D02*
D03*
Y807974D02*
D03*
X545313Y807424D02*
D03*
Y779924D02*
D03*
X522624Y807511D02*
D03*
Y780011D02*
D03*
X325628Y792446D02*
D03*
Y819946D02*
D03*
D85*
X504456Y721451D02*
D03*
Y737952D02*
D03*
X251606Y851853D02*
D03*
Y835353D02*
D03*
Y793538D02*
D03*
Y810038D02*
D03*
X3996Y762922D02*
D03*
Y746422D02*
D03*
D86*
X468480Y738035D02*
D03*
X477980D02*
D03*
X487480D02*
D03*
Y760035D02*
D03*
X477980D02*
D03*
X468480D02*
D03*
D87*
X445516Y750592D02*
D03*
Y721592D02*
D03*
D88*
Y769535D02*
D03*
X454516D02*
D03*
X596866Y819946D02*
D03*
X587866D02*
D03*
D89*
X753222Y715010D02*
D03*
D90*
X715222D02*
D03*
D91*
X570927Y754285D02*
D03*
X592527D02*
D03*
D92*
X539362Y686033D02*
D03*
Y704033D02*
D03*
D93*
X521922Y689434D02*
D03*
X485922D02*
D03*
D94*
X346934Y799998D02*
D03*
Y818998D02*
D03*
X374934D02*
D03*
Y809498D02*
D03*
Y799998D02*
D03*
X320010Y840384D02*
D03*
Y859384D02*
D03*
X348010D02*
D03*
Y849884D02*
D03*
Y840384D02*
D03*
D95*
X267088Y816552D02*
D03*
Y810052D02*
D03*
Y803552D02*
D03*
X284588D02*
D03*
Y810052D02*
D03*
Y816552D02*
D03*
D96*
X104756Y874488D02*
D03*
X132256D02*
D03*
D97*
X148705Y701997D02*
D03*
Y708997D02*
D03*
X27758Y703415D02*
D03*
Y710415D02*
D03*
X53549Y703415D02*
D03*
Y710415D02*
D03*
X135947Y806136D02*
D03*
Y799136D02*
D03*
X161347Y806029D02*
D03*
Y799028D02*
D03*
X110212Y806136D02*
D03*
Y799136D02*
D03*
X123305Y701997D02*
D03*
Y708997D02*
D03*
X604266Y960000D02*
D03*
Y953000D02*
D03*
X530606Y960000D02*
D03*
Y953000D02*
D03*
X458123Y960000D02*
D03*
Y953000D02*
D03*
X386334Y960000D02*
D03*
Y953000D02*
D03*
X314928Y960000D02*
D03*
Y953000D02*
D03*
X674316Y953724D02*
D03*
Y960724D02*
D03*
Y902924D02*
D03*
Y909924D02*
D03*
D98*
X-58420Y745744D02*
D03*
Y733044D02*
D03*
Y720344D02*
D03*
Y707644D02*
D03*
Y694944D02*
D03*
X-45720D02*
D03*
Y707644D02*
D03*
Y720344D02*
D03*
Y733044D02*
D03*
Y745744D02*
D03*
D99*
X345948Y746506D02*
D03*
X204774Y743035D02*
D03*
X205019Y776721D02*
D03*
X453210Y830050D02*
D03*
X76780Y701294D02*
D03*
X165855D02*
D03*
D100*
X222130Y630364D02*
D03*
X342053D02*
D03*
X462444D02*
D03*
D101*
X272930D02*
D03*
X726372Y668464D02*
D03*
X392853Y630364D02*
D03*
X513244D02*
D03*
X727222Y960724D02*
D03*
D102*
X590000Y692635D02*
D03*
Y889508D02*
D03*
X-56886Y612394D02*
D03*
D103*
X726372Y617664D02*
D03*
X727222Y909924D02*
D03*
D104*
X229933Y835353D02*
D03*
X482854Y814324D02*
D03*
D105*
X229933Y809954D02*
D03*
X482854Y788924D02*
D03*
D106*
X653542Y832612D02*
D03*
Y807212D02*
D03*
X678942Y832612D02*
D03*
Y807212D02*
D03*
X653542Y781812D02*
D03*
X59295Y682244D02*
D03*
X33895D02*
D03*
X165855Y682193D02*
D03*
X140455D02*
D03*
D107*
X678942Y781812D02*
D03*
D108*
X760222Y823468D02*
D03*
Y798068D02*
D03*
Y772668D02*
D03*
D109*
X8495Y682244D02*
D03*
X115055Y682193D02*
D03*
D110*
X161347Y835462D02*
D03*
D111*
X135947D02*
D03*
X110547D02*
D03*
D112*
X-52070Y758444D02*
D03*
X-41920Y682244D02*
D03*
X-62220D02*
D03*
D113*
X-77470Y701294D02*
D03*
Y758444D02*
D03*
X-26670D02*
D03*
Y701294D02*
D03*
D114*
X639572Y960000D02*
D03*
X565658D02*
D03*
X491756D02*
D03*
X421640D02*
D03*
X350012D02*
D03*
D115*
X-68906Y726584D02*
D03*
X93075Y867227D02*
D03*
X104394Y899668D02*
D03*
X65324Y949164D02*
D03*
X58530Y949706D02*
D03*
X565866Y807593D02*
D03*
X137785Y749554D02*
D03*
X243356Y852523D02*
D03*
X10414Y956090D02*
D03*
X251606Y782522D02*
D03*
X205019Y795821D02*
D03*
X375221Y786684D02*
D03*
X95556Y894897D02*
D03*
Y912340D02*
D03*
X104997Y917933D02*
D03*
X242281Y990266D02*
D03*
X251606Y985266D02*
D03*
X242281Y975307D02*
D03*
Y963850D02*
D03*
X217998Y894340D02*
D03*
X116922Y958850D02*
D03*
X16030Y849925D02*
D03*
X11580Y942086D02*
D03*
X47082Y832506D02*
D03*
X55530Y807778D02*
D03*
X48082Y799885D02*
D03*
X-1190Y875541D02*
D03*
X-1209Y912340D02*
D03*
X8855Y919340D02*
D03*
X3810Y924340D02*
D03*
X500718Y750895D02*
D03*
X227811Y852307D02*
D03*
X358992Y833050D02*
D03*
X62326Y762210D02*
D03*
X-68804Y741426D02*
D03*
X23625Y897530D02*
D03*
X82323Y851987D02*
D03*
X92289Y924340D02*
D03*
X88392Y844042D02*
D03*
X272930Y699173D02*
D03*
X309688Y915340D02*
D03*
X300798Y921340D02*
D03*
X385303Y711497D02*
D03*
X468564Y714834D02*
D03*
X209042Y880872D02*
D03*
X76780Y874501D02*
D03*
X267088Y789388D02*
D03*
X227473Y925840D02*
D03*
X21180Y732491D02*
D03*
X46157Y820420D02*
D03*
X58530Y798254D02*
D03*
X29832Y827307D02*
D03*
X16030Y766618D02*
D03*
X11580Y794004D02*
D03*
Y807778D02*
D03*
X69030Y852307D02*
D03*
X72909Y892840D02*
D03*
X71780Y905759D02*
D03*
X76530Y842419D02*
D03*
X302514Y874501D02*
D03*
X288433D02*
D03*
X251606Y883901D02*
D03*
X267088Y890919D02*
D03*
X226314Y901840D02*
D03*
X23674Y906188D02*
D03*
X25146Y915162D02*
D03*
X110547Y947300D02*
D03*
X104172Y939101D02*
D03*
X251606Y968980D02*
D03*
X25530Y848273D02*
D03*
X50825Y949585D02*
D03*
X43740Y949590D02*
D03*
X36030Y949706D02*
D03*
D116*
X42145Y703326D02*
D03*
M02*
