G04*
G04 #@! TF.GenerationSoftware,Altium Limited,Altium Designer,24.9.1 (31)*
G04*
G04 Layer_Color=16711935*
%FSLAX44Y44*%
%MOMM*%
G71*
G04*
G04 #@! TF.SameCoordinates,DA4EDB6E-3878-44D2-BF23-6E32A7E0A26F*
G04*
G04*
G04 #@! TF.FilePolarity,Negative*
G04*
G01*
G75*
%ADD100R,2.1500X2.1500*%
%ADD101C,2.1500*%
%ADD102C,4.5000*%
%ADD103R,2.1500X2.1500*%
%ADD104O,2.2000X1.7000*%
G04:AMPARAMS|DCode=105|XSize=1.7mm|YSize=2.2mm|CornerRadius=0.475mm|HoleSize=0mm|Usage=FLASHONLY|Rotation=90.000|XOffset=0mm|YOffset=0mm|HoleType=Round|Shape=RoundedRectangle|*
%AMROUNDEDRECTD105*
21,1,1.7000,1.2500,0,0,90.0*
21,1,0.7500,2.2000,0,0,90.0*
1,1,0.9500,0.6250,0.3750*
1,1,0.9500,0.6250,-0.3750*
1,1,0.9500,-0.6250,-0.3750*
1,1,0.9500,-0.6250,0.3750*
%
%ADD105ROUNDEDRECTD105*%
%ADD106C,1.8500*%
%ADD107R,1.8500X1.8500*%
%ADD108C,1.6000*%
%ADD109R,1.8500X1.8500*%
%ADD110R,1.4750X1.4750*%
%ADD111C,1.4750*%
%ADD112C,1.2668*%
%ADD113C,2.6511*%
%ADD114C,2.7400*%
%ADD115C,0.6500*%
%ADD116C,0.8000*%
D100*
X222130Y630364D02*
D03*
X342053D02*
D03*
X462444D02*
D03*
D101*
X272930D02*
D03*
X726372Y668464D02*
D03*
X392853Y630364D02*
D03*
X513244D02*
D03*
X727222Y960724D02*
D03*
D102*
X590000Y692635D02*
D03*
Y889508D02*
D03*
X-56886Y612394D02*
D03*
D103*
X726372Y617664D02*
D03*
X727222Y909924D02*
D03*
D104*
X229933Y835353D02*
D03*
X482854Y814324D02*
D03*
D105*
X229933Y809954D02*
D03*
X482854Y788924D02*
D03*
D106*
X653542Y832612D02*
D03*
Y807212D02*
D03*
X678942Y832612D02*
D03*
Y807212D02*
D03*
X653542Y781812D02*
D03*
X59295Y682244D02*
D03*
X33895D02*
D03*
X165855Y682193D02*
D03*
X140455D02*
D03*
D107*
X678942Y781812D02*
D03*
D108*
X760222Y823468D02*
D03*
Y798068D02*
D03*
Y772668D02*
D03*
D109*
X8495Y682244D02*
D03*
X115055Y682193D02*
D03*
D110*
X161347Y835462D02*
D03*
D111*
X135947D02*
D03*
X110547D02*
D03*
D112*
X-52070Y758444D02*
D03*
X-41920Y682244D02*
D03*
X-62220D02*
D03*
D113*
X-77470Y701294D02*
D03*
Y758444D02*
D03*
X-26670D02*
D03*
Y701294D02*
D03*
D114*
X639572Y960000D02*
D03*
X565658D02*
D03*
X491756D02*
D03*
X421640D02*
D03*
X350012D02*
D03*
D115*
X-68906Y726584D02*
D03*
X93075Y867227D02*
D03*
X104394Y899668D02*
D03*
X65324Y949164D02*
D03*
X58530Y949706D02*
D03*
X565866Y807593D02*
D03*
X137785Y749554D02*
D03*
X243356Y852523D02*
D03*
X10414Y956090D02*
D03*
X251606Y782522D02*
D03*
X205019Y795821D02*
D03*
X375221Y786684D02*
D03*
X95556Y894897D02*
D03*
Y912340D02*
D03*
X104997Y917933D02*
D03*
X242281Y990266D02*
D03*
X251606Y985266D02*
D03*
X242281Y975307D02*
D03*
Y963850D02*
D03*
X217998Y894340D02*
D03*
X116922Y958850D02*
D03*
X16030Y849925D02*
D03*
X11580Y942086D02*
D03*
X47082Y832506D02*
D03*
X55530Y807778D02*
D03*
X48082Y799885D02*
D03*
X-1190Y875541D02*
D03*
X-1209Y912340D02*
D03*
X8855Y919340D02*
D03*
X3810Y924340D02*
D03*
X500718Y750895D02*
D03*
X227811Y852307D02*
D03*
X358992Y833050D02*
D03*
X62326Y762210D02*
D03*
X-68804Y741426D02*
D03*
X23625Y897530D02*
D03*
X82323Y851987D02*
D03*
X92289Y924340D02*
D03*
X88392Y844042D02*
D03*
X272930Y699173D02*
D03*
X309688Y915340D02*
D03*
X300798Y921340D02*
D03*
X385303Y711497D02*
D03*
X468564Y714834D02*
D03*
X209042Y880872D02*
D03*
X76780Y874501D02*
D03*
X267088Y789388D02*
D03*
X227473Y925840D02*
D03*
X21180Y732491D02*
D03*
X46157Y820420D02*
D03*
X58530Y798254D02*
D03*
X29832Y827307D02*
D03*
X16030Y766618D02*
D03*
X11580Y794004D02*
D03*
Y807778D02*
D03*
X69030Y852307D02*
D03*
X72909Y892840D02*
D03*
X71780Y905759D02*
D03*
X76530Y842419D02*
D03*
X302514Y874501D02*
D03*
X288433D02*
D03*
X251606Y883901D02*
D03*
X267088Y890919D02*
D03*
X226314Y901840D02*
D03*
X23674Y906188D02*
D03*
X25146Y915162D02*
D03*
X110547Y947300D02*
D03*
X104172Y939101D02*
D03*
X251606Y968980D02*
D03*
X25530Y848273D02*
D03*
X50825Y949585D02*
D03*
X43740Y949590D02*
D03*
X36030Y949706D02*
D03*
D116*
X345948Y746506D02*
D03*
X204774Y743035D02*
D03*
X205019Y776721D02*
D03*
X453210Y830050D02*
D03*
X76780Y701294D02*
D03*
X165855D02*
D03*
X42145Y703326D02*
D03*
M02*
