M48
;Layer_Color=9474304
;FILE_FORMAT=4:2
METRIC,LZ
;TYPE=PLATED
T01F00S00C0.20
T02F00S00C0.25
T03F00S00C0.83
T04F00S00C0.85
T05F00S00C1.02
T06F00S00C1.10
T07F00S00C1.30
;TYPE=NON_PLATED
T08F00S00C1.07
T09F00S00C2.45
T10F00S00C2.80
%
T01
X007557Y005703
X007757Y006103
X007557Y006503
X007757Y006903
X007357
X006957
X006557
X006757Y006503
X007157
X006957Y006103
X007157Y005703
X006357
X005957
X006157Y006103
X005757
X005357
X004957
X004557
X004157
X003757
X003557Y006503
X003957
X004357
X004757
X005157
X005557
X005957
X004957Y006903
X004686Y007148
X004157Y006903
X003757
X003853Y007115
X003957Y005703
X004357
X004757
X005157
X003557
X003157
X002757
X002357
X001957
X001557
X001157
X000757
X000357
X-000043
X-000443
X-000243Y006103
X000157
X000557
X000957
X001357
X001757
X002157
X002557
X002957
X003357
X003157Y006503
X002757
X002357
X001957
X001557
X001157
X000757
X000357
X-000043
X-000443
X000957Y006903
X001757
X002557
X002729Y006992
X002957Y006903
X-000843Y006503
X-000689Y007266
X-000688Y007414
X-000643Y007703
Y008503
X-000243
X00016Y008499
X000255Y008483
X000298Y008273
X000471Y008325
X000462Y008204
X000555Y008078
X000585Y007983
X000481Y007999
X000116Y00794
Y008078
X00016Y007666
X000212Y007325
X000757Y007303
X000623Y007622
X001378Y007496
X001757Y007703
X002157
X00205Y007958
X002516Y007825
X002557Y007703
X002671Y007894
X002957Y007703
X003157Y008103
X003025Y008745
X002884
X002671Y008909
X002516Y008839
X002434Y008525
X002278Y008523
X002157Y008503
X00209Y008809
X00218Y008943
X002263Y009018
X00209Y009082
X00205Y009246
X002157Y009303
X002275Y009258
X002324Y009505
X002423Y009639
Y009753
Y009903
X002516Y009853
Y00969
X002263Y009787
X00205
Y00953
X001791
X001538
X001314
X001169Y009589
X001105Y009473
X001042Y009391
X001151Y009342
X00126Y00926
X001357Y009303
X00144Y009296
X001637Y009246
X001757Y009303
X001847Y009312
X001857Y009082
X001659
X001717Y008809
X001509Y008727
X001233Y00888
X001156Y009062
X001326
X001044Y008997
X000956Y008949
Y009123
X00105Y009179
X000923Y009243
X000718Y009058
X000729Y008928
X000558Y0089
X000357Y008903
X000279Y0089
X000236Y008975
X000237Y009062
X000251Y009152
X00026Y009318
X00027Y00948
X00036Y009497
X000437Y009496
X000508Y009496
X000585Y009497
X000653Y009492
X000869Y009662
X000912Y009853
X001011Y009809
X00126Y009787
X001509
X001791
X002557Y009303
X003008Y009213
X003097Y009153
X003157Y009703
Y007303
X002357
X001957
X000884Y00844
X000765Y008424
X000823Y00852
X00069Y008523
X000768Y008745
X000918Y008771
X000931Y008672
X000178Y008765
X-000012Y008755
X-000071Y008851
Y008975
X-000012Y009123
X-000071Y009193
Y009318
Y009446
X000025Y00953
X000104Y009561
X000116Y009421
X000089Y009193
X000038Y009243
X-000443Y008103
X003557
X00359Y008331
X003957Y008103
X004357
X004557Y008503
X004957
X005357
X005251Y008249
X005598Y008246
X005659Y008076
X005567Y007924
X005357Y007703
X004957
X005007Y007509
X005157Y007303
X005557
X006157Y007703
X005996Y008044
X005929Y00843
X005757Y008503
X006157
X006557
X006957
X007357
X007157Y008903
X006757
X006357
X006557Y009303
X006957
X007357
X007157Y009703
X006757
X005957
X005157
X004757
X004357
X003957
X003557Y008903
X004757
X005157
X005557
X007157Y008103
X007357Y007703
X007157Y007303
X006757
X004357
X003957
X003557
X003757Y007703
X003752Y007867
X004157Y007703
X007757
X007557Y008103
X007757Y008503
X007557Y008903
X007757Y009303
X007557Y009703
Y007303
T02
X000421Y007033
X000768Y007013
X001659
X002048Y00743
X00205Y007767
X003459Y007465
X004532Y008301
T03
X007602Y007727
Y007981
Y008235
T04
X001105Y008355
X001359
X001613
T05
X002299Y0081
Y008354
X0035Y0096
X004216
X004918
X005657
X006396
X004829Y008143
Y007889
T06
X000085Y006822
X000339
X000593
X001151Y006822
X001405
X001659
X006535Y007818
Y008072
Y008326
X006789
Y008072
Y007818
T07
X003421Y006304
X003929
X004624
X005132
X007264Y006177
Y006685
X002729Y006304
X002221
X007272Y009099
Y009607
T08
X-000419Y006822
X-000622
X-000521Y007584
T09
X-000267Y007013
X-000775
Y007584
X-000267
T10
X0059Y006926
X-000569Y006124
X0059Y008895
M30
