G04*
G04 #@! TF.GenerationSoftware,Altium Limited,Altium Designer,24.9.1 (31)*
G04*
G04 Layer_Color=16711935*
%FSLAX44Y44*%
%MOMM*%
G71*
G04*
G04 #@! TF.SameCoordinates,97D2A4A5-BD74-41C0-937B-CE03BE3D36C6*
G04*
G04*
G04 #@! TF.FilePolarity,Negative*
G04*
G01*
G75*
G04:AMPARAMS|DCode=63|XSize=1.65mm|YSize=1.65mm|CornerRadius=0.4125mm|HoleSize=0mm|Usage=FLASHONLY|Rotation=90.000|XOffset=0mm|YOffset=0mm|HoleType=Round|Shape=RoundedRectangle|*
%AMROUNDEDRECTD63*
21,1,1.6500,0.8250,0,0,90.0*
21,1,0.8250,1.6500,0,0,90.0*
1,1,0.8250,0.4125,0.4125*
1,1,0.8250,0.4125,-0.4125*
1,1,0.8250,-0.4125,-0.4125*
1,1,0.8250,-0.4125,0.4125*
%
%ADD63ROUNDEDRECTD63*%
%ADD64C,1.6500*%
%ADD66R,1.9500X1.9500*%
%ADD67C,1.9500*%
%ADD68C,4.3000*%
%ADD69R,1.9500X1.9500*%
%ADD70O,2.0000X1.5000*%
G04:AMPARAMS|DCode=71|XSize=1.5mm|YSize=2mm|CornerRadius=0.375mm|HoleSize=0mm|Usage=FLASHONLY|Rotation=90.000|XOffset=0mm|YOffset=0mm|HoleType=Round|Shape=RoundedRectangle|*
%AMROUNDEDRECTD71*
21,1,1.5000,1.2500,0,0,90.0*
21,1,0.7500,2.0000,0,0,90.0*
1,1,0.7500,0.6250,0.3750*
1,1,0.7500,0.6250,-0.3750*
1,1,0.7500,-0.6250,-0.3750*
1,1,0.7500,-0.6250,0.3750*
%
%ADD71ROUNDEDRECTD71*%
%ADD72C,1.4000*%
%ADD73R,1.6500X1.6500*%
%ADD74R,1.2750X1.2750*%
%ADD75C,1.2750*%
%ADD76C,1.0668*%
%ADD77C,2.4511*%
%ADD78C,2.5400*%
%ADD79C,0.4510*%
%ADD80C,0.6000*%
D63*
X678942Y782066D02*
D03*
D64*
X653542D02*
D03*
X678942Y807466D02*
D03*
Y832866D02*
D03*
X653542Y807466D02*
D03*
Y832866D02*
D03*
X59295Y682244D02*
D03*
X33895D02*
D03*
X165855Y682193D02*
D03*
X140455D02*
D03*
D66*
X222130Y630364D02*
D03*
X342053D02*
D03*
X462444D02*
D03*
D67*
X272930D02*
D03*
X726372Y668464D02*
D03*
X392853Y630364D02*
D03*
X513244D02*
D03*
X727222Y960724D02*
D03*
D68*
X590000Y692635D02*
D03*
Y889508D02*
D03*
X-56886Y612394D02*
D03*
D69*
X726372Y617664D02*
D03*
X727222Y909924D02*
D03*
D70*
X229933Y835353D02*
D03*
X482854Y814324D02*
D03*
D71*
X229933Y809954D02*
D03*
X482854Y788924D02*
D03*
D72*
X760222Y823468D02*
D03*
Y798068D02*
D03*
Y772668D02*
D03*
D73*
X8495Y682244D02*
D03*
X115055Y682193D02*
D03*
D74*
X161347Y835462D02*
D03*
D75*
X135947D02*
D03*
X110547D02*
D03*
D76*
X-52070Y758444D02*
D03*
X-41920Y682244D02*
D03*
X-62220D02*
D03*
D77*
X-77470Y701294D02*
D03*
Y758444D02*
D03*
X-26670D02*
D03*
Y701294D02*
D03*
D78*
X639572Y960000D02*
D03*
X565658D02*
D03*
X491756D02*
D03*
X421640D02*
D03*
X350012D02*
D03*
D79*
X93075Y867227D02*
D03*
X104394Y899668D02*
D03*
X65324Y949164D02*
D03*
X58530Y949706D02*
D03*
X565866Y807593D02*
D03*
X137785Y749554D02*
D03*
X243356Y852523D02*
D03*
X10414Y956090D02*
D03*
X251606Y782522D02*
D03*
X205019Y795821D02*
D03*
X375221Y786684D02*
D03*
X95556Y894897D02*
D03*
Y912340D02*
D03*
X104997Y917933D02*
D03*
X242281Y990266D02*
D03*
X251606Y985266D02*
D03*
X242281Y975307D02*
D03*
Y963850D02*
D03*
X217998Y894340D02*
D03*
X116922Y958850D02*
D03*
X16030Y849925D02*
D03*
X11580Y942086D02*
D03*
X47082Y832506D02*
D03*
X55530Y807778D02*
D03*
X48082Y799885D02*
D03*
X-1209Y912340D02*
D03*
X8855Y919340D02*
D03*
X3810Y924340D02*
D03*
X500718Y750895D02*
D03*
X227811Y852307D02*
D03*
X358992Y833050D02*
D03*
X62326Y762210D02*
D03*
X-68804Y741426D02*
D03*
X23625Y897530D02*
D03*
X82323Y851987D02*
D03*
X92289Y924340D02*
D03*
X88392Y844042D02*
D03*
X272930Y699173D02*
D03*
X309688Y915340D02*
D03*
X300798Y921340D02*
D03*
X385303Y711497D02*
D03*
X468564Y714834D02*
D03*
X209042Y880872D02*
D03*
X76780Y874501D02*
D03*
X267088Y789388D02*
D03*
X227473Y925840D02*
D03*
X21180Y732491D02*
D03*
X46157Y820420D02*
D03*
X58530Y798254D02*
D03*
X29832Y827307D02*
D03*
X16030Y766618D02*
D03*
X11580Y794004D02*
D03*
Y807778D02*
D03*
X69030Y852307D02*
D03*
X72909Y892840D02*
D03*
X71780Y905759D02*
D03*
X76530Y842419D02*
D03*
X302514Y874501D02*
D03*
X288433D02*
D03*
X251606Y883901D02*
D03*
X267088Y890919D02*
D03*
X226314Y901840D02*
D03*
X23674Y906188D02*
D03*
X25146Y915162D02*
D03*
X110547Y947300D02*
D03*
X104172Y939101D02*
D03*
X251606Y968980D02*
D03*
X25530Y848273D02*
D03*
X50825Y949585D02*
D03*
X43740Y949590D02*
D03*
X36030Y949706D02*
D03*
D80*
X345948Y746506D02*
D03*
X204774Y743035D02*
D03*
X205019Y776721D02*
D03*
X453210Y830050D02*
D03*
X76780Y701294D02*
D03*
X165855D02*
D03*
X42145Y703326D02*
D03*
M02*
