G04*
G04 #@! TF.GenerationSoftware,Altium Limited,Altium Designer,24.9.1 (31)*
G04*
G04 Layer_Physical_Order=3*
G04 Layer_Color=128*
%FSLAX44Y44*%
%MOMM*%
G71*
G04*
G04 #@! TF.SameCoordinates,97D2A4A5-BD74-41C0-937B-CE03BE3D36C6*
G04*
G04*
G04 #@! TF.FilePolarity,Negative*
G04*
G01*
G75*
%ADD87C,1.0160*%
%ADD88C,2.1160*%
G04:AMPARAMS|DCode=89|XSize=1.774mm|YSize=1.774mm|CornerRadius=0mm|HoleSize=0mm|Usage=FLASHONLY|Rotation=0.000|XOffset=0mm|YOffset=0mm|HoleType=Round|Shape=Relief|Width=0.254mm|Gap=0.254mm|Entries=4|*
%AMTHD89*
7,0,0,1.7740,1.2660,0.2540,45*
%
%ADD89THD89*%
%ADD90C,2.3160*%
%ADD93C,2.0360*%
G04:AMPARAMS|DCode=94|XSize=2.544mm|YSize=2.544mm|CornerRadius=0mm|HoleSize=0mm|Usage=FLASHONLY|Rotation=0.000|XOffset=0mm|YOffset=0mm|HoleType=Round|Shape=Relief|Width=0.254mm|Gap=0.254mm|Entries=4|*
%AMTHD94*
7,0,0,2.5440,2.0360,0.2540,45*
%
%ADD94THD94*%
%ADD95C,1.8460*%
%ADD97C,1.2660*%
%ADD99C,1.8660*%
%ADD100C,2.0828*%
%ADD101C,3.4671*%
%ADD102C,1.2160*%
%ADD103C,3.8160*%
D87*
X-104140Y877824D02*
X-24384D01*
X-120904Y861060D02*
X-104140Y877824D01*
X-120904Y597408D02*
Y861060D01*
Y597408D02*
X-74676Y551180D01*
X781558D01*
X797814Y567436D01*
Y977392D01*
X775462Y999744D02*
X797814Y977392D01*
X254Y999744D02*
X775462D01*
X-7112Y992378D02*
X254Y999744D01*
X-7112Y958850D02*
Y992378D01*
X-17526Y948436D02*
X-7112Y958850D01*
X-17526Y884682D02*
Y948436D01*
X-24384Y877824D02*
X-17526Y884682D01*
D88*
X678942Y782066D02*
D03*
X653542D02*
D03*
X678942Y807466D02*
D03*
Y832866D02*
D03*
X653542Y807466D02*
D03*
Y832866D02*
D03*
X59295Y682244D02*
D03*
X33895D02*
D03*
X8495D02*
D03*
X165855Y682193D02*
D03*
X140455D02*
D03*
X115055D02*
D03*
D89*
X205019Y776721D02*
D03*
D90*
X222130Y630364D02*
D03*
X272930D02*
D03*
X726372Y668464D02*
D03*
Y617664D02*
D03*
X342053Y630364D02*
D03*
X392853D02*
D03*
X462444D02*
D03*
X513244D02*
D03*
X727222Y960724D02*
D03*
Y909924D02*
D03*
D93*
X229933Y835353D02*
D03*
Y809954D02*
D03*
X482854Y814324D02*
D03*
X639572Y960000D02*
D03*
X565658D02*
D03*
X491756D02*
D03*
X421640D02*
D03*
X350012D02*
D03*
D94*
X482854Y788924D02*
D03*
D95*
X760222Y823468D02*
D03*
Y798068D02*
D03*
Y772668D02*
D03*
D97*
X345948Y746506D02*
D03*
X204774Y743035D02*
D03*
X453210Y830050D02*
D03*
X76780Y701294D02*
D03*
X165855D02*
D03*
X42145Y703326D02*
D03*
D99*
X161347Y835462D02*
D03*
X135947D02*
D03*
X110547D02*
D03*
D100*
X-52070Y758444D02*
D03*
X-41920Y682244D02*
D03*
X-62220D02*
D03*
D101*
X-77470Y701294D02*
D03*
Y758444D02*
D03*
X-26670D02*
D03*
Y701294D02*
D03*
D102*
X-65918Y725328D02*
D03*
X755739Y970333D02*
D03*
X775739Y930333D02*
D03*
X755739Y890333D02*
D03*
X775739Y850333D02*
D03*
X755739Y810333D02*
D03*
X775739Y770333D02*
D03*
X755739Y730333D02*
D03*
X775739Y690333D02*
D03*
X755739Y650333D02*
D03*
X775739Y610334D02*
D03*
X755739Y570334D02*
D03*
X715739Y970333D02*
D03*
X735739Y930333D02*
D03*
X715739Y890333D02*
D03*
X735739Y850333D02*
D03*
X715739Y810333D02*
D03*
X735739Y770333D02*
D03*
X715739Y730333D02*
D03*
X735739Y690333D02*
D03*
X715739Y650333D02*
D03*
Y570334D02*
D03*
X675739Y970333D02*
D03*
X695739Y930333D02*
D03*
X675739Y890333D02*
D03*
X695739Y850333D02*
D03*
X675739Y730333D02*
D03*
X695739Y690333D02*
D03*
X675739Y650333D02*
D03*
X695739Y610334D02*
D03*
X655739Y930333D02*
D03*
X635739Y890333D02*
D03*
X655739Y850333D02*
D03*
Y690333D02*
D03*
X635739Y570334D02*
D03*
X595739Y970333D02*
D03*
X615739Y850333D02*
D03*
Y770333D02*
D03*
X595739Y650333D02*
D03*
X615739Y610334D02*
D03*
X595739Y570334D02*
D03*
X555739Y890333D02*
D03*
X575739Y850333D02*
D03*
X555739Y730333D02*
D03*
Y650333D02*
D03*
X575739Y610334D02*
D03*
X515739Y970333D02*
D03*
Y890333D02*
D03*
X535739Y850333D02*
D03*
Y770333D02*
D03*
X515739Y730333D02*
D03*
Y650333D02*
D03*
X535739Y610334D02*
D03*
X515739Y570334D02*
D03*
X475739Y970333D02*
D03*
Y890333D02*
D03*
X495739Y850333D02*
D03*
Y770333D02*
D03*
Y690333D02*
D03*
X475739Y650333D02*
D03*
X495739Y610334D02*
D03*
X475739Y570334D02*
D03*
X435739Y970333D02*
D03*
X455739Y850333D02*
D03*
X435739Y810333D02*
D03*
Y730333D02*
D03*
Y650333D02*
D03*
X455739Y610334D02*
D03*
X435739Y570334D02*
D03*
X395739Y970333D02*
D03*
Y810333D02*
D03*
X415739Y770333D02*
D03*
X395739Y730333D02*
D03*
X415739Y690333D02*
D03*
X395739Y650333D02*
D03*
X415739Y610334D02*
D03*
X395739Y570334D02*
D03*
X355739Y890333D02*
D03*
Y810333D02*
D03*
X375739Y770333D02*
D03*
X355739Y730333D02*
D03*
X375739Y690333D02*
D03*
X355739Y650333D02*
D03*
X375739Y610334D02*
D03*
X355739Y570334D02*
D03*
X315739Y970333D02*
D03*
Y810333D02*
D03*
Y730333D02*
D03*
Y650333D02*
D03*
X335739Y610334D02*
D03*
X315739Y570334D02*
D03*
X295739Y770333D02*
D03*
Y690333D02*
D03*
X275739Y650333D02*
D03*
X295739Y610334D02*
D03*
X275739Y570334D02*
D03*
X255739Y930333D02*
D03*
Y770333D02*
D03*
X235739Y730333D02*
D03*
X255739Y690333D02*
D03*
X235739Y650333D02*
D03*
X255739Y610334D02*
D03*
X235739Y570334D02*
D03*
X215739Y930333D02*
D03*
Y850333D02*
D03*
Y770333D02*
D03*
X195739Y730333D02*
D03*
Y650333D02*
D03*
X215739Y610334D02*
D03*
X195739Y570334D02*
D03*
X175739Y930333D02*
D03*
Y770333D02*
D03*
Y690333D02*
D03*
X155739Y650333D02*
D03*
X175739Y610334D02*
D03*
X155739Y570334D02*
D03*
X135739Y930333D02*
D03*
X115739Y650333D02*
D03*
X135739Y610334D02*
D03*
X115739Y570334D02*
D03*
X75739Y730333D02*
D03*
X95739Y690333D02*
D03*
X75739Y650333D02*
D03*
X95739Y610334D02*
D03*
X75739Y570334D02*
D03*
X35739Y890333D02*
D03*
Y650333D02*
D03*
X55739Y610334D02*
D03*
X35739Y570334D02*
D03*
X-4261Y650333D02*
D03*
X15739Y610334D02*
D03*
X-4261Y570334D02*
D03*
X-24261Y850333D02*
D03*
X-44261Y810333D02*
D03*
Y650333D02*
D03*
X-24261Y610334D02*
D03*
X-44261Y570334D02*
D03*
X-64261Y850333D02*
D03*
Y770333D02*
D03*
X-84261Y650333D02*
D03*
X599616Y804414D02*
D03*
X125984Y925961D02*
D03*
X132613Y906188D02*
D03*
X115617D02*
D03*
X104394Y899668D02*
D03*
X556678Y792446D02*
D03*
X559816Y824646D02*
D03*
X525123Y824947D02*
D03*
X27030Y948046D02*
D03*
X27940Y889975D02*
D03*
X65324Y949164D02*
D03*
X58530Y949706D02*
D03*
X592866Y843026D02*
D03*
X10414Y956090D02*
D03*
X205019Y795821D02*
D03*
X123305Y887984D02*
D03*
X95556Y894897D02*
D03*
Y912340D02*
D03*
X104997Y917933D02*
D03*
X209042Y908166D02*
D03*
X185663D02*
D03*
X165855D02*
D03*
X232433Y950500D02*
D03*
X226314Y978662D02*
D03*
X205019D02*
D03*
X179070D02*
D03*
X150876D02*
D03*
X125984D02*
D03*
X242281Y990266D02*
D03*
X251606Y985266D02*
D03*
X242281Y975307D02*
D03*
Y963850D02*
D03*
X91186Y985266D02*
D03*
X101092Y980948D02*
D03*
X86868Y966216D02*
D03*
X171688Y880872D02*
D03*
X217998Y894340D02*
D03*
X205019Y953008D02*
D03*
X179070D02*
D03*
X153826D02*
D03*
X131439D02*
D03*
X116922Y958850D02*
D03*
X115055Y934222D02*
D03*
X144018Y929640D02*
D03*
X163734Y924560D02*
D03*
X150876Y872744D02*
D03*
X205019Y924560D02*
D03*
X184697Y931186D02*
D03*
X91836Y877072D02*
D03*
X26030Y931840D02*
D03*
X55784Y889975D02*
D03*
X2540Y953008D02*
D03*
X-7112Y944626D02*
D03*
Y931840D02*
D03*
Y919340D02*
D03*
Y897530D02*
D03*
Y885131D02*
D03*
X16030Y849925D02*
D03*
X47082Y832506D02*
D03*
X55530Y807778D02*
D03*
X48082Y799885D02*
D03*
X-1190Y875541D02*
D03*
X-1209Y912340D02*
D03*
X8855Y919340D02*
D03*
X3810Y924340D02*
D03*
X500718Y750895D02*
D03*
X227811Y852307D02*
D03*
X23625Y897530D02*
D03*
X82323Y851987D02*
D03*
X92289Y924340D02*
D03*
X88392Y844042D02*
D03*
X272930Y699173D02*
D03*
X309688Y915340D02*
D03*
X300798Y921340D02*
D03*
X385303Y711497D02*
D03*
X468564Y714834D02*
D03*
X209042Y880872D02*
D03*
X76780Y874501D02*
D03*
X267088Y789388D02*
D03*
X227473Y925840D02*
D03*
X21180Y732491D02*
D03*
X46157Y820420D02*
D03*
X58530Y798254D02*
D03*
X29832Y827307D02*
D03*
X16030Y766618D02*
D03*
X11580Y794004D02*
D03*
Y807778D02*
D03*
X69030Y852307D02*
D03*
X72909Y892840D02*
D03*
X71780Y905759D02*
D03*
X76530Y842419D02*
D03*
X302514Y874501D02*
D03*
X288433D02*
D03*
X251606Y883901D02*
D03*
X267088Y890919D02*
D03*
X226314Y901840D02*
D03*
X23674Y906188D02*
D03*
X25146Y915162D02*
D03*
X110547Y947300D02*
D03*
X104172Y939101D02*
D03*
X251606Y968980D02*
D03*
X25530Y848273D02*
D03*
X50825Y949585D02*
D03*
X43740Y949590D02*
D03*
X36030Y949706D02*
D03*
D103*
X590000Y692635D02*
D03*
Y889508D02*
D03*
X-56886Y612394D02*
D03*
M02*
